<?xml version="1.0" encoding="UTF-8" standalone="no"?><svg xmlns="http://www.w3.org/2000/svg" xmlns:xlink="http://www.w3.org/1999/xlink" contentScriptType="application/ecmascript" contentStyleType="text/css" height="668px" preserveAspectRatio="none" style="width:1840px;height:668px;" version="1.1" viewBox="0 0 1840 668" width="1840px" zoomAndPan="magnify"><defs><filter height="300%" id="ft07glrdpt5qp" width="300%" x="-1" y="-1"><feGaussianBlur result="blurOut" stdDeviation="2.0"/><feColorMatrix in="blurOut" result="blurOut2" type="matrix" values="0 0 0 0 0 0 0 0 0 0 0 0 0 0 0 0 0 0 .4 0"/><feOffset dx="4.0" dy="4.0" in="blurOut2" result="blurOut3"/><feBlend in="SourceGraphic" in2="blurOut3" mode="normal"/></filter></defs><g><!--MD5=[e471781225fc0f8fbd677bbc1a50d018]
cluster engine--><polygon fill="#FFFFFF" filter="url(#ft07glrdpt5qp)" points="89.7206,6,148.7206,6,155.7206,28.2969,1201.7206,28.2969,1201.7206,635,89.7206,635,89.7206,6" style="stroke: #000000; stroke-width: 1.5;"/><line style="stroke: #000000; stroke-width: 1.5;" x1="89.7206" x2="155.7206" y1="28.2969" y2="28.2969"/><text fill="#000000" font-family="sans-serif" font-size="14" font-weight="bold" lengthAdjust="spacingAndGlyphs" textLength="53" x="93.7206" y="20.9951">engine</text><!--MD5=[5d4cd377749310b66bf14896f5cd8d9b]
cluster model--><polygon fill="#FFFFFF" filter="url(#ft07glrdpt5qp)" points="1225.7206,274,1280.7206,274,1287.7206,296.2969,1823.7206,296.2969,1823.7206,661,1225.7206,661,1225.7206,274" style="stroke: #000000; stroke-width: 1.5;"/><line style="stroke: #000000; stroke-width: 1.5;" x1="1225.7206" x2="1287.7206" y1="296.2969" y2="296.2969"/><text fill="#000000" font-family="sans-serif" font-size="14" font-weight="bold" lengthAdjust="spacingAndGlyphs" textLength="49" x="1229.7206" y="288.9951">model</text><!--MD5=[463e47da418b008b6091c7b120cc3c15]
cluster start--><polygon fill="#FFFFFF" filter="url(#ft07glrdpt5qp)" points="1400.7206,12.5,1448.7206,12.5,1455.7206,34.7969,1648.7206,34.7969,1648.7206,124.5,1400.7206,124.5,1400.7206,12.5" style="stroke: #000000; stroke-width: 1.5;"/><line style="stroke: #000000; stroke-width: 1.5;" x1="1400.7206" x2="1455.7206" y1="34.7969" y2="34.7969"/><text fill="#000000" font-family="sans-serif" font-size="14" font-weight="bold" lengthAdjust="spacingAndGlyphs" textLength="42" x="1404.7206" y="27.4951">start</text><!--MD5=[2e5679976a773afae2525507978dad9d]
class Cmd--><rect codeLine="2" fill="#FEFECE" filter="url(#ft07glrdpt5qp)" height="48" id="Cmd" style="stroke: #A80036; stroke-width: 1.5;" width="59" x="1126.2206" y="54"/><ellipse cx="1141.2206" cy="70" fill="#EB937F" rx="11" ry="11" style="stroke: #A80036; stroke-width: 1.0;"/><path d="M1140.0175,70.875 L1141.4706,70.875 L1141.4706,70.9844 C1141.4706,71.3906 1141.5019,71.5469 1141.58,71.7031 C1141.7362,71.9531 1142.0175,72.1094 1142.3144,72.1094 C1142.5644,72.1094 1142.83,71.9688 1142.9862,71.75 C1143.1112,71.5938 1143.1425,71.4375 1143.1425,70.9844 L1143.1425,69.0625 C1143.1425,68.9063 1143.1425,68.8594 1143.1269,68.7031 C1143.0644,68.2344 1142.7519,67.9219 1142.2987,67.9219 C1142.0487,67.9219 1141.7831,68.0625 1141.6112,68.2813 C1141.5019,68.4531 1141.4706,68.6094 1141.4706,69.0625 L1141.4706,69.1875 L1140.0175,69.1875 L1140.0175,66.7813 L1144.0019,66.7813 L1144.0019,67.6406 C1144.0019,68.0469 1144.0331,68.2188 1144.1112,68.375 C1144.2831,68.625 1144.5644,68.7813 1144.8456,68.7813 C1145.1112,68.7813 1145.3769,68.6406 1145.5487,68.4219 C1145.6581,68.25 1145.6894,68.1094 1145.6894,67.6406 L1145.6894,65.0938 L1138.0644,65.0938 C1137.6269,65.0938 1137.5019,65.1094 1137.3456,65.2031 C1137.0956,65.3594 1136.9394,65.6563 1136.9394,65.9375 C1136.9394,66.2188 1137.08,66.4688 1137.2987,66.6406 C1137.455,66.75 1137.6425,66.7813 1138.0644,66.7813 L1138.3144,66.7813 L1138.3144,73.2969 L1138.0644,73.2969 C1137.6581,73.2969 1137.5019,73.3125 1137.3456,73.4219 C1137.0956,73.5938 1136.9394,73.8594 1136.9394,74.1563 C1136.9394,74.4219 1137.08,74.6719 1137.2987,74.8281 C1137.4394,74.9531 1137.6737,75 1138.0644,75 L1146.0644,75 L1146.0644,72.4219 C1146.0644,71.9844 1146.0331,71.8438 1145.955,71.6875 C1145.7831,71.4375 1145.5019,71.2813 1145.2206,71.2813 C1144.955,71.2813 1144.6894,71.3906 1144.5175,71.6406 C1144.4081,71.7969 1144.3769,71.9375 1144.3769,72.4219 L1144.3769,73.2969 L1140.0175,73.2969 L1140.0175,70.875 Z "/><text fill="#000000" font-family="sans-serif" font-size="12" lengthAdjust="spacingAndGlyphs" textLength="27" x="1155.2206" y="74.1543">Cmd</text><line style="stroke: #A80036; stroke-width: 1.5;" x1="1127.2206" x2="1184.2206" y1="86" y2="86"/><line style="stroke: #A80036; stroke-width: 1.5;" x1="1127.2206" x2="1184.2206" y1="94" y2="94"/><!--MD5=[3ad2a79a7d7d539cf057dae47f26badf]
class DrawingPanel--><rect codeLine="3" fill="#FEFECE" filter="url(#ft07glrdpt5qp)" height="137.6328" id="DrawingPanel" style="stroke: #A80036; stroke-width: 1.5;" width="252" x="425.7206" y="309"/><ellipse cx="507.4706" cy="325" fill="#ADD1B2" rx="11" ry="11" style="stroke: #A80036; stroke-width: 1.0;"/><path d="M509.8144,320.6719 C508.8769,320.2344 508.2831,320.0938 507.4081,320.0938 C504.7831,320.0938 502.7831,322.1719 502.7831,324.8906 L502.7831,326.0156 C502.7831,328.5938 504.8925,330.4844 507.7831,330.4844 C509.0019,330.4844 510.1581,330.1875 510.9081,329.6406 C511.4862,329.2344 511.8144,328.7813 511.8144,328.3906 C511.8144,327.9375 511.4237,327.5469 510.955,327.5469 C510.7362,327.5469 510.5331,327.625 510.3456,327.8125 C509.8925,328.2969 509.8925,328.2969 509.705,328.3906 C509.2831,328.6563 508.5956,328.7813 507.83,328.7813 C505.7831,328.7813 504.4862,327.6875 504.4862,325.9844 L504.4862,324.8906 C504.4862,323.1094 505.7362,321.7969 507.4706,321.7969 C508.0487,321.7969 508.6581,321.9531 509.1269,322.2031 C509.6112,322.4844 509.7831,322.7031 509.8769,323.1094 C509.9394,323.5156 509.9706,323.6406 510.1112,323.7656 C510.2519,323.9063 510.4862,324.0156 510.705,324.0156 C510.9706,324.0156 511.2362,323.875 511.4081,323.6563 C511.5175,323.5 511.5487,323.3125 511.5487,322.8906 L511.5487,321.4688 C511.5487,321.0313 511.5331,320.9063 511.4394,320.75 C511.2831,320.4844 511.0019,320.3438 510.705,320.3438 C510.4081,320.3438 510.205,320.4375 509.9862,320.75 L509.8144,320.6719 Z "/><text fill="#000000" font-family="sans-serif" font-size="12" lengthAdjust="spacingAndGlyphs" textLength="80" x="527.9706" y="329.1543">DrawingPanel</text><line style="stroke: #A80036; stroke-width: 1.5;" x1="426.7206" x2="676.7206" y1="341" y2="341"/><text fill="#000000" font-family="sans-serif" font-size="11" lengthAdjust="spacingAndGlyphs" textLength="228" x="431.7206" y="355.2104">private static final long serialVersionUID</text><text fill="#000000" font-family="sans-serif" font-size="11" lengthAdjust="spacingAndGlyphs" textLength="196" x="431.7206" y="368.0151">private BufferedImage nextImage</text><text fill="#000000" font-family="sans-serif" font-size="11" lengthAdjust="spacingAndGlyphs" textLength="210" x="431.7206" y="380.8198">private BufferedImage currentImage</text><text fill="#000000" font-family="sans-serif" font-size="11" lengthAdjust="spacingAndGlyphs" textLength="135" x="431.7206" y="393.6245">private int width, height</text><line style="stroke: #A80036; stroke-width: 1.5;" x1="426.7206" x2="676.7206" y1="400.2188" y2="400.2188"/><text fill="#000000" font-family="sans-serif" font-size="11" lengthAdjust="spacingAndGlyphs" textLength="240" x="431.7206" y="414.4292">public DrawingPanel(GamePainter painter)</text><text fill="#000000" font-family="sans-serif" font-size="11" lengthAdjust="spacingAndGlyphs" textLength="135" x="431.7206" y="427.2339">public void drawGame()</text><text fill="#000000" font-family="sans-serif" font-size="11" lengthAdjust="spacingAndGlyphs" textLength="161" x="431.7206" y="440.0386">public void paint(Graphics g)</text><!--MD5=[36afe292eb27441132c327893668631d]
class JPanel--><rect fill="#FEFECE" filter="url(#ft07glrdpt5qp)" height="48" id="JPanel" style="stroke: #A80036; stroke-width: 1.5;" width="67" x="678.2206" y="188"/><ellipse cx="693.2206" cy="204" fill="#ADD1B2" rx="11" ry="11" style="stroke: #A80036; stroke-width: 1.0;"/><path d="M695.5644,199.6719 C694.6269,199.2344 694.0331,199.0938 693.1581,199.0938 C690.5331,199.0938 688.5331,201.1719 688.5331,203.8906 L688.5331,205.0156 C688.5331,207.5938 690.6425,209.4844 693.5331,209.4844 C694.7519,209.4844 695.9081,209.1875 696.6581,208.6406 C697.2362,208.2344 697.5644,207.7813 697.5644,207.3906 C697.5644,206.9375 697.1737,206.5469 696.705,206.5469 C696.4862,206.5469 696.2831,206.625 696.0956,206.8125 C695.6425,207.2969 695.6425,207.2969 695.455,207.3906 C695.0331,207.6563 694.3456,207.7813 693.58,207.7813 C691.5331,207.7813 690.2362,206.6875 690.2362,204.9844 L690.2362,203.8906 C690.2362,202.1094 691.4862,200.7969 693.2206,200.7969 C693.7987,200.7969 694.4081,200.9531 694.8769,201.2031 C695.3612,201.4844 695.5331,201.7031 695.6269,202.1094 C695.6894,202.5156 695.7206,202.6406 695.8612,202.7656 C696.0019,202.9063 696.2362,203.0156 696.455,203.0156 C696.7206,203.0156 696.9862,202.875 697.1581,202.6563 C697.2675,202.5 697.2987,202.3125 697.2987,201.8906 L697.2987,200.4688 C697.2987,200.0313 697.2831,199.9063 697.1894,199.75 C697.0331,199.4844 696.7519,199.3438 696.455,199.3438 C696.1581,199.3438 695.955,199.4375 695.7362,199.75 L695.5644,199.6719 Z "/><text fill="#000000" font-family="sans-serif" font-size="12" lengthAdjust="spacingAndGlyphs" textLength="35" x="707.2206" y="208.1543">JPanel</text><line style="stroke: #A80036; stroke-width: 1.5;" x1="679.2206" x2="744.2206" y1="220" y2="220"/><line style="stroke: #A80036; stroke-width: 1.5;" x1="679.2206" x2="744.2206" y1="228" y2="228"/><!--MD5=[b6dcce5e5ef3c84b0b048d11301373dd]
class Game--><rect codeLine="12" fill="#FEFECE" filter="url(#ft07glrdpt5qp)" height="73.6094" id="Game" style="stroke: #A80036; stroke-width: 1.5;" width="206" x="780.7206" y="175"/><ellipse cx="861.9706" cy="191" fill="#B4A7E5" rx="11" ry="11" style="stroke: #A80036; stroke-width: 1.0;"/><path d="M862.9237,187.7813 L864.6425,187.7813 C865.0331,187.7813 865.2206,187.75 865.3456,187.6719 C865.6112,187.5156 865.7519,187.2344 865.7519,186.9375 C865.7519,186.6719 865.6425,186.4063 865.4081,186.2344 C865.2362,186.125 865.0956,186.0938 864.6425,186.0938 L859.5019,186.0938 C859.0644,186.0938 858.9394,186.1094 858.7831,186.2031 C858.5331,186.3594 858.3769,186.6563 858.3769,186.9375 C858.3769,187.2188 858.5175,187.4688 858.7362,187.6406 C858.8925,187.75 859.08,187.7813 859.5019,187.7813 L861.2206,187.7813 L861.2206,194.2969 L859.5019,194.2969 C859.0644,194.2969 858.9394,194.3125 858.7831,194.4219 C858.5331,194.5781 858.3769,194.8594 858.3769,195.1563 C858.3769,195.4063 858.5175,195.6719 858.7362,195.8281 C858.8925,195.9531 859.0956,196 859.5019,196 L864.6425,196 C865.3925,196 865.7519,195.7188 865.7519,195.1563 C865.7519,194.875 865.6425,194.625 865.4081,194.4531 C865.2362,194.3281 865.0956,194.2969 864.6425,194.2969 L862.9237,194.2969 L862.9237,187.7813 Z "/><text fill="#000000" font-family="sans-serif" font-size="12" font-style="italic" lengthAdjust="spacingAndGlyphs" textLength="35" x="882.4706" y="195.1543">Game</text><line style="stroke: #A80036; stroke-width: 1.5;" x1="781.7206" x2="985.7206" y1="207" y2="207"/><line style="stroke: #A80036; stroke-width: 1.5;" x1="781.7206" x2="985.7206" y1="215" y2="215"/><text fill="#000000" font-family="sans-serif" font-size="11" lengthAdjust="spacingAndGlyphs" textLength="194" x="786.7206" y="229.2104">public void evolve(Cmd userCmd)</text><text fill="#000000" font-family="sans-serif" font-size="11" lengthAdjust="spacingAndGlyphs" textLength="151" x="786.7206" y="242.0151">public boolean isFinished()</text><!--MD5=[82d9c97a467af7c0b2c072e754b85475]
class GameController--><rect codeLine="16" fill="#FEFECE" filter="url(#ft07glrdpt5qp)" height="60.8047" id="GameController" style="stroke: #A80036; stroke-width: 1.5;" width="164" x="1021.7206" y="181.5"/><ellipse cx="1054.2706" cy="197.5" fill="#B4A7E5" rx="11" ry="11" style="stroke: #A80036; stroke-width: 1.0;"/><path d="M1055.2237,194.2813 L1056.9425,194.2813 C1057.3331,194.2813 1057.5206,194.25 1057.6456,194.1719 C1057.9112,194.0156 1058.0519,193.7344 1058.0519,193.4375 C1058.0519,193.1719 1057.9425,192.9063 1057.7081,192.7344 C1057.5362,192.625 1057.3956,192.5938 1056.9425,192.5938 L1051.8019,192.5938 C1051.3644,192.5938 1051.2394,192.6094 1051.0831,192.7031 C1050.8331,192.8594 1050.6769,193.1563 1050.6769,193.4375 C1050.6769,193.7188 1050.8175,193.9688 1051.0362,194.1406 C1051.1925,194.25 1051.38,194.2813 1051.8019,194.2813 L1053.5206,194.2813 L1053.5206,200.7969 L1051.8019,200.7969 C1051.3644,200.7969 1051.2394,200.8125 1051.0831,200.9219 C1050.8331,201.0781 1050.6769,201.3594 1050.6769,201.6563 C1050.6769,201.9063 1050.8175,202.1719 1051.0362,202.3281 C1051.1925,202.4531 1051.3956,202.5 1051.8019,202.5 L1056.9425,202.5 C1057.6925,202.5 1058.0519,202.2188 1058.0519,201.6563 C1058.0519,201.375 1057.9425,201.125 1057.7081,200.9531 C1057.5362,200.8281 1057.3956,200.7969 1056.9425,200.7969 L1055.2237,200.7969 L1055.2237,194.2813 Z "/><text fill="#000000" font-family="sans-serif" font-size="12" font-style="italic" lengthAdjust="spacingAndGlyphs" textLength="93" x="1072.1706" y="201.6543">GameController</text><line style="stroke: #A80036; stroke-width: 1.5;" x1="1022.7206" x2="1184.7206" y1="213.5" y2="213.5"/><line style="stroke: #A80036; stroke-width: 1.5;" x1="1022.7206" x2="1184.7206" y1="221.5" y2="221.5"/><text fill="#000000" font-family="sans-serif" font-size="11" lengthAdjust="spacingAndGlyphs" textLength="152" x="1027.7206" y="235.7104">public Cmd getCommand()</text><!--MD5=[7cc6ce3da43ef94cad7d75512e2834ff]
class GameEngineGraphical--><rect codeLine="20" fill="#FEFECE" filter="url(#ft07glrdpt5qp)" height="73.6094" id="GameEngineGraphical" style="stroke: #A80036; stroke-width: 1.5;" width="602" x="297.7206" y="41"/><ellipse cx="528.9706" cy="57" fill="#ADD1B2" rx="11" ry="11" style="stroke: #A80036; stroke-width: 1.0;"/><path d="M531.3144,52.6719 C530.3769,52.2344 529.7831,52.0938 528.9081,52.0938 C526.2831,52.0938 524.2831,54.1719 524.2831,56.8906 L524.2831,58.0156 C524.2831,60.5938 526.3925,62.4844 529.2831,62.4844 C530.5019,62.4844 531.6581,62.1875 532.4081,61.6406 C532.9862,61.2344 533.3144,60.7813 533.3144,60.3906 C533.3144,59.9375 532.9237,59.5469 532.455,59.5469 C532.2362,59.5469 532.0331,59.625 531.8456,59.8125 C531.3925,60.2969 531.3925,60.2969 531.205,60.3906 C530.7831,60.6563 530.0956,60.7813 529.33,60.7813 C527.2831,60.7813 525.9862,59.6875 525.9862,57.9844 L525.9862,56.8906 C525.9862,55.1094 527.2362,53.7969 528.9706,53.7969 C529.5487,53.7969 530.1581,53.9531 530.6269,54.2031 C531.1112,54.4844 531.2831,54.7031 531.3769,55.1094 C531.4394,55.5156 531.4706,55.6406 531.6112,55.7656 C531.7519,55.9063 531.9862,56.0156 532.205,56.0156 C532.4706,56.0156 532.7362,55.875 532.9081,55.6563 C533.0175,55.5 533.0487,55.3125 533.0487,54.8906 L533.0487,53.4688 C533.0487,53.0313 533.0331,52.9063 532.9394,52.75 C532.7831,52.4844 532.5019,52.3438 532.205,52.3438 C531.9081,52.3438 531.705,52.4375 531.4862,52.75 L531.3144,52.6719 Z "/><text fill="#000000" font-family="sans-serif" font-size="12" lengthAdjust="spacingAndGlyphs" textLength="131" x="549.4706" y="61.1543">GameEngineGraphical</text><line style="stroke: #A80036; stroke-width: 1.5;" x1="298.7206" x2="898.7206" y1="73" y2="73"/><line style="stroke: #A80036; stroke-width: 1.5;" x1="298.7206" x2="898.7206" y1="81" y2="81"/><text fill="#000000" font-family="sans-serif" font-size="11" lengthAdjust="spacingAndGlyphs" textLength="590" x="303.7206" y="95.2104">public GameEngineGraphical(Game game, GamePainter gamePainter, GameController gameController)</text><text fill="#000000" font-family="sans-serif" font-size="11" lengthAdjust="spacingAndGlyphs" textLength="91" x="303.7206" y="108.0151">public void run()</text><!--MD5=[6334a9df84847b1e3cc0f4b3bb7faca9]
class GamePainter--><rect codeLine="24" fill="#FEFECE" filter="url(#ft07glrdpt5qp)" height="86.4141" id="GamePainter" style="stroke: #A80036; stroke-width: 1.5;" width="287" x="408.2206" y="533"/><ellipse cx="508.9706" cy="549" fill="#B4A7E5" rx="11" ry="11" style="stroke: #A80036; stroke-width: 1.0;"/><path d="M509.9237,545.7813 L511.6425,545.7813 C512.0331,545.7813 512.2206,545.75 512.3456,545.6719 C512.6112,545.5156 512.7519,545.2344 512.7519,544.9375 C512.7519,544.6719 512.6425,544.4063 512.4081,544.2344 C512.2362,544.125 512.0956,544.0938 511.6425,544.0938 L506.5019,544.0938 C506.0644,544.0938 505.9394,544.1094 505.7831,544.2031 C505.5331,544.3594 505.3769,544.6563 505.3769,544.9375 C505.3769,545.2188 505.5175,545.4688 505.7362,545.6406 C505.8925,545.75 506.08,545.7813 506.5019,545.7813 L508.2206,545.7813 L508.2206,552.2969 L506.5019,552.2969 C506.0644,552.2969 505.9394,552.3125 505.7831,552.4219 C505.5331,552.5781 505.3769,552.8594 505.3769,553.1563 C505.3769,553.4063 505.5175,553.6719 505.7362,553.8281 C505.8925,553.9531 506.0956,554 506.5019,554 L511.6425,554 C512.3925,554 512.7519,553.7188 512.7519,553.1563 C512.7519,552.875 512.6425,552.625 512.4081,552.4531 C512.2362,552.3281 512.0956,552.2969 511.6425,552.2969 L509.9237,552.2969 L509.9237,545.7813 Z "/><text fill="#000000" font-family="sans-serif" font-size="12" font-style="italic" lengthAdjust="spacingAndGlyphs" textLength="77" x="529.4706" y="553.1543">GamePainter</text><line style="stroke: #A80036; stroke-width: 1.5;" x1="409.2206" x2="694.2206" y1="565" y2="565"/><line style="stroke: #A80036; stroke-width: 1.5;" x1="409.2206" x2="694.2206" y1="573" y2="573"/><text fill="#000000" font-family="sans-serif" font-size="11" lengthAdjust="spacingAndGlyphs" textLength="275" x="414.2206" y="587.2104">public abstract void draw(BufferedImage image)</text><text fill="#000000" font-family="sans-serif" font-size="11" lengthAdjust="spacingAndGlyphs" textLength="163" x="414.2206" y="600.0151">public abstract int getWidth()</text><text fill="#000000" font-family="sans-serif" font-size="11" lengthAdjust="spacingAndGlyphs" textLength="168" x="414.2206" y="612.8198">public abstract int getHeight()</text><!--MD5=[d7976c3e31f2093d0743d92749b86f63]
class GraphicalInterface--><rect codeLine="29" fill="#FEFECE" filter="url(#ft07glrdpt5qp)" height="73.6094" id="GraphicalInterface" style="stroke: #A80036; stroke-width: 1.5;" width="500" x="142.7206" y="175"/><ellipse cx="333.9706" cy="191" fill="#ADD1B2" rx="11" ry="11" style="stroke: #A80036; stroke-width: 1.0;"/><path d="M336.3144,186.6719 C335.3769,186.2344 334.7831,186.0938 333.9081,186.0938 C331.2831,186.0938 329.2831,188.1719 329.2831,190.8906 L329.2831,192.0156 C329.2831,194.5938 331.3925,196.4844 334.2831,196.4844 C335.5019,196.4844 336.6581,196.1875 337.4081,195.6406 C337.9862,195.2344 338.3144,194.7813 338.3144,194.3906 C338.3144,193.9375 337.9237,193.5469 337.455,193.5469 C337.2362,193.5469 337.0331,193.625 336.8456,193.8125 C336.3925,194.2969 336.3925,194.2969 336.205,194.3906 C335.7831,194.6563 335.0956,194.7813 334.33,194.7813 C332.2831,194.7813 330.9862,193.6875 330.9862,191.9844 L330.9862,190.8906 C330.9862,189.1094 332.2362,187.7969 333.9706,187.7969 C334.5487,187.7969 335.1581,187.9531 335.6269,188.2031 C336.1112,188.4844 336.2831,188.7031 336.3769,189.1094 C336.4394,189.5156 336.4706,189.6406 336.6112,189.7656 C336.7519,189.9063 336.9862,190.0156 337.205,190.0156 C337.4706,190.0156 337.7362,189.875 337.9081,189.6563 C338.0175,189.5 338.0487,189.3125 338.0487,188.8906 L338.0487,187.4688 C338.0487,187.0313 338.0331,186.9063 337.9394,186.75 C337.7831,186.4844 337.5019,186.3438 337.205,186.3438 C336.9081,186.3438 336.705,186.4375 336.4862,186.75 L336.3144,186.6719 Z "/><text fill="#000000" font-family="sans-serif" font-size="12" lengthAdjust="spacingAndGlyphs" textLength="109" x="354.4706" y="195.1543">GraphicalInterface</text><line style="stroke: #A80036; stroke-width: 1.5;" x1="143.7206" x2="641.7206" y1="207" y2="207"/><line style="stroke: #A80036; stroke-width: 1.5;" x1="143.7206" x2="641.7206" y1="215" y2="215"/><text fill="#000000" font-family="sans-serif" font-size="11" lengthAdjust="spacingAndGlyphs" textLength="488" x="148.7206" y="229.2104">public GraphicalInterface(GamePainter gamePainter, GameController gameController)</text><text fill="#000000" font-family="sans-serif" font-size="11" lengthAdjust="spacingAndGlyphs" textLength="101" x="148.7206" y="242.0151">public void paint()</text><!--MD5=[445ca1d7457e22c3c57a49506646ef11]
class PacmanController--><rect codeLine="41" fill="#FEFECE" filter="url(#ft07glrdpt5qp)" height="112.0234" id="PacmanController" style="stroke: #A80036; stroke-width: 1.5;" width="227" x="1580.2206" y="322"/><ellipse cx="1637.4706" cy="338" fill="#ADD1B2" rx="11" ry="11" style="stroke: #A80036; stroke-width: 1.0;"/><path d="M1639.8144,333.6719 C1638.8769,333.2344 1638.2831,333.0938 1637.4081,333.0938 C1634.7831,333.0938 1632.7831,335.1719 1632.7831,337.8906 L1632.7831,339.0156 C1632.7831,341.5938 1634.8925,343.4844 1637.7831,343.4844 C1639.0019,343.4844 1640.1581,343.1875 1640.9081,342.6406 C1641.4862,342.2344 1641.8144,341.7813 1641.8144,341.3906 C1641.8144,340.9375 1641.4237,340.5469 1640.955,340.5469 C1640.7362,340.5469 1640.5331,340.625 1640.3456,340.8125 C1639.8925,341.2969 1639.8925,341.2969 1639.705,341.3906 C1639.2831,341.6563 1638.5956,341.7813 1637.83,341.7813 C1635.7831,341.7813 1634.4862,340.6875 1634.4862,338.9844 L1634.4862,337.8906 C1634.4862,336.1094 1635.7362,334.7969 1637.4706,334.7969 C1638.0487,334.7969 1638.6581,334.9531 1639.1269,335.2031 C1639.6112,335.4844 1639.7831,335.7031 1639.8769,336.1094 C1639.9394,336.5156 1639.9706,336.6406 1640.1112,336.7656 C1640.2519,336.9063 1640.4862,337.0156 1640.705,337.0156 C1640.9706,337.0156 1641.2362,336.875 1641.4081,336.6563 C1641.5175,336.5 1641.5487,336.3125 1641.5487,335.8906 L1641.5487,334.4688 C1641.5487,334.0313 1641.5331,333.9063 1641.4394,333.75 C1641.2831,333.4844 1641.0019,333.3438 1640.705,333.3438 C1640.4081,333.3438 1640.205,333.4375 1639.9862,333.75 L1639.8144,333.6719 Z "/><text fill="#000000" font-family="sans-serif" font-size="12" lengthAdjust="spacingAndGlyphs" textLength="104" x="1657.9706" y="342.1543">PacmanController</text><line style="stroke: #A80036; stroke-width: 1.5;" x1="1581.2206" x2="1806.2206" y1="354" y2="354"/><line style="stroke: #A80036; stroke-width: 1.5;" x1="1581.2206" x2="1806.2206" y1="362" y2="362"/><text fill="#000000" font-family="sans-serif" font-size="11" lengthAdjust="spacingAndGlyphs" textLength="144" x="1586.2206" y="376.2104">public PacmanController()</text><text fill="#000000" font-family="sans-serif" font-size="11" lengthAdjust="spacingAndGlyphs" textLength="152" x="1586.2206" y="389.0151">public Cmd getCommand()</text><text fill="#000000" font-family="sans-serif" font-size="11" lengthAdjust="spacingAndGlyphs" textLength="206" x="1586.2206" y="401.8198">public void keyPressed(KeyEvent e)</text><text fill="#000000" font-family="sans-serif" font-size="11" lengthAdjust="spacingAndGlyphs" textLength="215" x="1586.2206" y="414.6245">public void keyReleased(KeyEvent e)</text><text fill="#000000" font-family="sans-serif" font-size="11" lengthAdjust="spacingAndGlyphs" textLength="197" x="1586.2206" y="427.4292">public void keyTyped(KeyEvent e)</text><!--MD5=[7f9f6f2d8e92938121262dc4c5d80163]
class PacmanGame--><rect codeLine="49" fill="#FEFECE" filter="url(#ft07glrdpt5qp)" height="137.6328" id="PacmanGame" style="stroke: #A80036; stroke-width: 1.5;" width="219" x="1263.2206" y="507"/><ellipse cx="1328.4706" cy="523" fill="#ADD1B2" rx="11" ry="11" style="stroke: #A80036; stroke-width: 1.0;"/><path d="M1330.8144,518.6719 C1329.8769,518.2344 1329.2831,518.0938 1328.4081,518.0938 C1325.7831,518.0938 1323.7831,520.1719 1323.7831,522.8906 L1323.7831,524.0156 C1323.7831,526.5938 1325.8925,528.4844 1328.7831,528.4844 C1330.0019,528.4844 1331.1581,528.1875 1331.9081,527.6406 C1332.4862,527.2344 1332.8144,526.7813 1332.8144,526.3906 C1332.8144,525.9375 1332.4237,525.5469 1331.955,525.5469 C1331.7362,525.5469 1331.5331,525.625 1331.3456,525.8125 C1330.8925,526.2969 1330.8925,526.2969 1330.705,526.3906 C1330.2831,526.6563 1329.5956,526.7813 1328.83,526.7813 C1326.7831,526.7813 1325.4862,525.6875 1325.4862,523.9844 L1325.4862,522.8906 C1325.4862,521.1094 1326.7362,519.7969 1328.4706,519.7969 C1329.0487,519.7969 1329.6581,519.9531 1330.1269,520.2031 C1330.6112,520.4844 1330.7831,520.7031 1330.8769,521.1094 C1330.9394,521.5156 1330.9706,521.6406 1331.1112,521.7656 C1331.2519,521.9063 1331.4862,522.0156 1331.705,522.0156 C1331.9706,522.0156 1332.2362,521.875 1332.4081,521.6563 C1332.5175,521.5 1332.5487,521.3125 1332.5487,520.8906 L1332.5487,519.4688 C1332.5487,519.0313 1332.5331,518.9063 1332.4394,518.75 C1332.2831,518.4844 1332.0019,518.3438 1331.705,518.3438 C1331.4081,518.3438 1331.205,518.4375 1330.9862,518.75 L1330.8144,518.6719 Z "/><text fill="#000000" font-family="sans-serif" font-size="12" lengthAdjust="spacingAndGlyphs" textLength="80" x="1348.9706" y="527.1543">PacmanGame</text><line style="stroke: #A80036; stroke-width: 1.5;" x1="1264.2206" x2="1481.2206" y1="539" y2="539"/><text fill="#000000" font-family="sans-serif" font-size="11" lengthAdjust="spacingAndGlyphs" textLength="69" x="1269.2206" y="553.2104">private int x</text><text fill="#000000" font-family="sans-serif" font-size="11" lengthAdjust="spacingAndGlyphs" textLength="72" x="1269.2206" y="566.0151">private int y;</text><line style="stroke: #A80036; stroke-width: 1.5;" x1="1264.2206" x2="1481.2206" y1="572.6094" y2="572.6094"/><text fill="#000000" font-family="sans-serif" font-size="11" lengthAdjust="spacingAndGlyphs" textLength="199" x="1269.2206" y="586.8198">public PacmanGame(String source)</text><text fill="#000000" font-family="sans-serif" font-size="11" lengthAdjust="spacingAndGlyphs" textLength="90" x="1269.2206" y="599.6245">public int getX()</text><text fill="#000000" font-family="sans-serif" font-size="11" lengthAdjust="spacingAndGlyphs" textLength="89" x="1269.2206" y="612.4292">public int getY()</text><text fill="#000000" font-family="sans-serif" font-size="11" lengthAdjust="spacingAndGlyphs" textLength="207" x="1269.2206" y="625.2339">public void evolve(Cmd commande)</text><text fill="#000000" font-family="sans-serif" font-size="11" lengthAdjust="spacingAndGlyphs" textLength="151" x="1269.2206" y="638.0386">public boolean isFinished()</text><!--MD5=[8d2ddd461e593964ccbd45e1418f0370]
class PacmanPainter--><rect codeLine="58" fill="#FEFECE" filter="url(#ft07glrdpt5qp)" height="137.6328" id="PacmanPainter" style="stroke: #A80036; stroke-width: 1.5;" width="303" x="1242.2206" y="309"/><ellipse cx="1346.9706" cy="325" fill="#ADD1B2" rx="11" ry="11" style="stroke: #A80036; stroke-width: 1.0;"/><path d="M1349.3144,320.6719 C1348.3769,320.2344 1347.7831,320.0938 1346.9081,320.0938 C1344.2831,320.0938 1342.2831,322.1719 1342.2831,324.8906 L1342.2831,326.0156 C1342.2831,328.5938 1344.3925,330.4844 1347.2831,330.4844 C1348.5019,330.4844 1349.6581,330.1875 1350.4081,329.6406 C1350.9862,329.2344 1351.3144,328.7813 1351.3144,328.3906 C1351.3144,327.9375 1350.9237,327.5469 1350.455,327.5469 C1350.2362,327.5469 1350.0331,327.625 1349.8456,327.8125 C1349.3925,328.2969 1349.3925,328.2969 1349.205,328.3906 C1348.7831,328.6563 1348.0956,328.7813 1347.33,328.7813 C1345.2831,328.7813 1343.9862,327.6875 1343.9862,325.9844 L1343.9862,324.8906 C1343.9862,323.1094 1345.2362,321.7969 1346.9706,321.7969 C1347.5487,321.7969 1348.1581,321.9531 1348.6269,322.2031 C1349.1112,322.4844 1349.2831,322.7031 1349.3769,323.1094 C1349.4394,323.5156 1349.4706,323.6406 1349.6112,323.7656 C1349.7519,323.9063 1349.9862,324.0156 1350.205,324.0156 C1350.4706,324.0156 1350.7362,323.875 1350.9081,323.6563 C1351.0175,323.5 1351.0487,323.3125 1351.0487,322.8906 L1351.0487,321.4688 C1351.0487,321.0313 1351.0331,320.9063 1350.9394,320.75 C1350.7831,320.4844 1350.5019,320.3438 1350.205,320.3438 C1349.9081,320.3438 1349.705,320.4375 1349.4862,320.75 L1349.3144,320.6719 Z "/><text fill="#000000" font-family="sans-serif" font-size="12" lengthAdjust="spacingAndGlyphs" textLength="85" x="1367.4706" y="329.1543">PacmanPainter</text><line style="stroke: #A80036; stroke-width: 1.5;" x1="1243.2206" x2="1544.2206" y1="341" y2="341"/><text fill="#000000" font-family="sans-serif" font-size="11" lengthAdjust="spacingAndGlyphs" textLength="151" x="1248.2206" y="355.2104">private Graphics2D crayon</text><text fill="#000000" font-family="sans-serif" font-size="11" lengthAdjust="spacingAndGlyphs" textLength="177" x="1248.2206" y="368.0151">protected static final int WIDTH</text><text fill="#000000" font-family="sans-serif" font-size="11" lengthAdjust="spacingAndGlyphs" textLength="181" x="1248.2206" y="380.8198">protected static final int HEIGHT</text><line style="stroke: #A80036; stroke-width: 1.5;" x1="1243.2206" x2="1544.2206" y1="387.4141" y2="387.4141"/><text fill="#000000" font-family="sans-serif" font-size="11" lengthAdjust="spacingAndGlyphs" textLength="291" x="1248.2206" y="401.6245">public PacmanPainter(PacmanGame pacmanGame)</text><text fill="#000000" font-family="sans-serif" font-size="11" lengthAdjust="spacingAndGlyphs" textLength="204" x="1248.2206" y="414.4292">public void draw(BufferedImage im)</text><text fill="#000000" font-family="sans-serif" font-size="11" lengthAdjust="spacingAndGlyphs" textLength="114" x="1248.2206" y="427.2339">public int getWidth()</text><text fill="#000000" font-family="sans-serif" font-size="11" lengthAdjust="spacingAndGlyphs" textLength="119" x="1248.2206" y="440.0386">public int getHeight()</text><!--MD5=[84718776d214be480e4c259efcb737fc]
class Main--><rect codeLine="71" fill="#FEFECE" filter="url(#ft07glrdpt5qp)" height="60.8047" id="Main" style="stroke: #A80036; stroke-width: 1.5;" width="216" x="1416.7206" y="47.5"/><ellipse cx="1506.9706" cy="63.5" fill="#ADD1B2" rx="11" ry="11" style="stroke: #A80036; stroke-width: 1.0;"/><path d="M1509.3144,59.1719 C1508.3769,58.7344 1507.7831,58.5938 1506.9081,58.5938 C1504.2831,58.5938 1502.2831,60.6719 1502.2831,63.3906 L1502.2831,64.5156 C1502.2831,67.0938 1504.3925,68.9844 1507.2831,68.9844 C1508.5019,68.9844 1509.6581,68.6875 1510.4081,68.1406 C1510.9862,67.7344 1511.3144,67.2813 1511.3144,66.8906 C1511.3144,66.4375 1510.9237,66.0469 1510.455,66.0469 C1510.2362,66.0469 1510.0331,66.125 1509.8456,66.3125 C1509.3925,66.7969 1509.3925,66.7969 1509.205,66.8906 C1508.7831,67.1563 1508.0956,67.2813 1507.33,67.2813 C1505.2831,67.2813 1503.9862,66.1875 1503.9862,64.4844 L1503.9862,63.3906 C1503.9862,61.6094 1505.2362,60.2969 1506.9706,60.2969 C1507.5487,60.2969 1508.1581,60.4531 1508.6269,60.7031 C1509.1112,60.9844 1509.2831,61.2031 1509.3769,61.6094 C1509.4394,62.0156 1509.4706,62.1406 1509.6112,62.2656 C1509.7519,62.4063 1509.9862,62.5156 1510.205,62.5156 C1510.4706,62.5156 1510.7362,62.375 1510.9081,62.1563 C1511.0175,62 1511.0487,61.8125 1511.0487,61.3906 L1511.0487,59.9688 C1511.0487,59.5313 1511.0331,59.4063 1510.9394,59.25 C1510.7831,58.9844 1510.5019,58.8438 1510.205,58.8438 C1509.9081,58.8438 1509.705,58.9375 1509.4862,59.25 L1509.3144,59.1719 Z "/><text fill="#000000" font-family="sans-serif" font-size="12" lengthAdjust="spacingAndGlyphs" textLength="27" x="1527.4706" y="67.6543">Main</text><line style="stroke: #A80036; stroke-width: 1.5;" x1="1417.7206" x2="1631.7206" y1="79.5" y2="79.5"/><line style="stroke: #A80036; stroke-width: 1.5;" x1="1417.7206" x2="1631.7206" y1="87.5" y2="87.5"/><text fill="#000000" font-family="sans-serif" font-size="11" lengthAdjust="spacingAndGlyphs" textLength="204" x="1422.7206" y="101.7104">public static void main(String[] args)</text><!--MD5=[4afabb6f3c46c6ba44f529e96217200f]
reverse link JPanel to DrawingPanel--><path d="M675.0776,250.559 C658.1786,267.88 637.5826,288.991 618.0976,308.964 " fill="none" id="JPanel-backto-DrawingPanel" style="stroke: #A80036; stroke-width: 1.0;"/><polygon fill="none" points="670.1586,245.577,689.1356,236.149,680.1796,255.353,670.1586,245.577" style="stroke: #A80036; stroke-width: 1.0;"/><!--MD5=[dd428f42614802df7105aec30a17bcaa]
link DrawingPanel to GamePainter--><path codeLine="33" d="M551.7206,447.001 C551.7206,475.527 551.7206,507.806 551.7206,532.812 " fill="none" id="DrawingPanel-GamePainter" style="stroke: #A80036; stroke-width: 1.0;"/><text fill="#000000" font-family="sans-serif" font-size="13" lengthAdjust="spacingAndGlyphs" textLength="8" x="543.0831" y="521.7781">1</text><!--MD5=[a6b78f167cceb8a755105e5e50477a11]
link GameEngineGraphical to Game--><path codeLine="34" d="M676.5986,115.07 C716.8116,133.695 765.7366,156.355 805.9376,174.974 " fill="none" id="GameEngineGraphical-Game" style="stroke: #A80036; stroke-width: 1.0;"/><text fill="#000000" font-family="sans-serif" font-size="13" lengthAdjust="spacingAndGlyphs" textLength="8" x="782.8589" y="163.8797">1</text><!--MD5=[96f5d1ff4124b566d5d7a48176a08b16]
link GameEngineGraphical to GamePainter--><path codeLine="35" d="M297.6276,109.322 C219.1226,123.731 149.5028,144.695 124.7206,175 C6,320.176 280.6096,463.999 442.9656,532.913 " fill="none" id="GameEngineGraphical-GamePainter" style="stroke: #A80036; stroke-width: 1.0;"/><text fill="#000000" font-family="sans-serif" font-size="13" lengthAdjust="spacingAndGlyphs" textLength="8" x="416.9953" y="521.8952">1</text><!--MD5=[9feef538a68573ecfa0f053b9ee875e4]
link GameEngineGraphical to GameController--><path codeLine="36" d="M769.8086,115.055 C842.4326,131.519 927.7066,152.387 1003.7206,175 C1010.4416,176.999 1017.3696,179.198 1024.2976,181.494 " fill="none" id="GameEngineGraphical-GameController" style="stroke: #A80036; stroke-width: 1.0;"/><text fill="#000000" font-family="sans-serif" font-size="13" lengthAdjust="spacingAndGlyphs" textLength="8" x="1005.609" y="173.7124">1</text><!--MD5=[9be206aaebfe095febcdb733745d3244]
link GameEngineGraphical to GraphicalInterface--><path codeLine="37" d="M542.4306,115.07 C513.3636,133.695 477.9996,156.355 448.9426,174.974 " fill="none" id="GameEngineGraphical-GraphicalInterface" style="stroke: #A80036; stroke-width: 1.0;"/><text fill="#000000" font-family="sans-serif" font-size="13" lengthAdjust="spacingAndGlyphs" textLength="8" x="450.571" y="163.8797">1</text><!--MD5=[fead969f6af7d8574470731c6d1452db]
link GraphicalInterface to DrawingPanel--><path codeLine="38" d="M428.0076,249.397 C444.9336,266.855 465.7796,288.356 485.5026,308.7 " fill="none" id="GraphicalInterface-DrawingPanel" style="stroke: #A80036; stroke-width: 1.0;"/><text fill="#000000" font-family="sans-serif" font-size="13" lengthAdjust="spacingAndGlyphs" textLength="8" x="470.2614" y="297.8727">1</text><!--MD5=[64e787f999a1edf0f06c7e5d69ad8504]
reverse link GameController to PacmanController--><path d="M1205.8706,224.054 C1338.6306,238.525 1554.5806,262.474 1562.7206,266 C1592.4006,278.861 1620.4506,300.76 1642.9206,321.724 " fill="none" id="GameController-backto-PacmanController" style="stroke: #A80036; stroke-width: 1.0; stroke-dasharray: 7.0,7.0;"/><polygon fill="none" points="1204.8506,230.984,1185.7306,221.861,1206.3706,217.066,1204.8506,230.984" style="stroke: #A80036; stroke-width: 1.0;"/><!--MD5=[1096b6cf6f83b21144605c5da5724ef6]
link PacmanController to Cmd--><path codeLine="48" d="M1635.7406,321.979 C1613.8706,302.854 1588.1206,282.166 1562.7206,266 C1430.5406,181.866 1254.2806,114.323 1185.2306,89.378 " fill="none" id="PacmanController-Cmd" style="stroke: #A80036; stroke-width: 1.0;"/><!--MD5=[6bed81755f3c853b7b67737437729881]
reverse link Game to PacmanGame--><path d="M948.5276,260.976 C1033.6956,324.024 1183.8006,435.147 1280.7106,506.887 " fill="none" id="Game-backto-PacmanGame" style="stroke: #A80036; stroke-width: 1.0; stroke-dasharray: 7.0,7.0;"/><polygon fill="none" points="944.3056,266.559,932.3956,249.033,952.6356,255.307,944.3056,266.559" style="stroke: #A80036; stroke-width: 1.0;"/><!--MD5=[b1c9693fabb413ec3993054968e77f59]
reverse link GamePainter to PacmanPainter--><path d="M715.3606,549.584 C847.7316,527.399 1038.3116,491.769 1201.7206,447 C1214.9406,443.379 1228.5506,439.297 1242.1406,434.975 " fill="none" id="GamePainter-backto-PacmanPainter" style="stroke: #A80036; stroke-width: 1.0; stroke-dasharray: 7.0,7.0;"/><polygon fill="none" points="716.3236,556.52,695.4466,552.893,714.0286,542.709,716.3236,556.52" style="stroke: #A80036; stroke-width: 1.0;"/><!--MD5=[42af796030bddf1e96b9dd99c16f5675]
link PacmanPainter to PacmanGame--><path codeLine="68" d="M1386.4306,447.001 C1384.3606,466.35 1382.1006,487.426 1380.0306,506.787 " fill="none" id="PacmanPainter-PacmanGame" style="stroke: #A80036; stroke-width: 1.0;"/><text fill="#000000" font-family="sans-serif" font-size="13" lengthAdjust="spacingAndGlyphs" textLength="8" x="1372.3719" y="495.9686">1</text><!--MD5=[bc056dab6f6dc4517d25e44421acf7b0]
@startuml
package engine <<Folder>> {
   enum Cmd
   Class DrawingPanel extends JPanel{
      private static final long serialVersionUID
      private BufferedImage nextImage
      private BufferedImage currentImage
      private int width, height
      public DrawingPanel(GamePainter painter)
      public void drawGame()
      public void paint(Graphics g)
   }
   Interface Game{
      public void evolve(Cmd userCmd)
      public boolean isFinished()
   }
   interface GameController {
      public Cmd getCommand()
      
   }
   class GameEngineGraphical{
       public GameEngineGraphical(Game game, GamePainter gamePainter, GameController gameController)
       public void run()
   }
   interface GamePainter{
       public abstract void draw(BufferedImage image)
       public abstract int getWidth()
       public abstract int getHeight()
   }
   class GraphicalInterface  {
      public GraphicalInterface(GamePainter gamePainter, GameController gameController)
      public void paint()
   }
  DrawingPanel- -"1"GamePainter
  GameEngineGraphical- -"1"Game
  GameEngineGraphical- -"1"GamePainter
  GameEngineGraphical- -"1"GameController
  GameEngineGraphical- -"1"GraphicalInterface
  GraphicalInterface- -"1"DrawingPanel
}
package model <<Folder>>{
    class PacmanController implements GameController {
    public PacmanController()
    public Cmd getCommand()
    public void keyPressed(KeyEvent e)
    public void keyReleased(KeyEvent e)
    public void keyTyped(KeyEvent e)
  }
  PacmanController- -Cmd
  class PacmanGame implements Game {
    private int x
    private int y;
    public PacmanGame(String source)
    public int getX()
    public int getY()
    public void evolve(Cmd commande)
    public boolean isFinished()
  }
  class PacmanPainter implements GamePainter {

    private Graphics2D crayon
    protected static final int WIDTH 
    protected static final int HEIGHT  
    public PacmanPainter(PacmanGame pacmanGame)
    public void draw(BufferedImage im)  
    public int getWidth() 
    public int getHeight()
  }
  PacmanPainter - -"1"PacmanGame
}
package start <<Folder>>{
   class Main{

	public static void main(String[] args) 
    }
}
@enduml

PlantUML version 1.2020.20beta3(Unknown compile time)
(GPL source distribution)
Java Runtime: Java(TM) SE Runtime Environment
JVM: Java HotSpot(TM) 64-Bit Server VM
Default Encoding: UTF-8
Language: en
Country: US
--></g></svg>